<svg width="64" height="64" viewBox="0 0 64 64" fill="none" xmlns="http://www.w3.org/2000/svg">
<path d="M58.6744 8.00016V19.9923C58.6744 20.733 58.0739 21.3335 57.3331 21.3335C56.8 21.3335 56.3203 21.0163 56.0907 20.5351C51.8035 11.5454 42.6309 5.3335 32.0077 5.3335C18.18 5.3335 6.81058 15.858 5.47266 29.3335" stroke="#2E2E2E" stroke-width="4" stroke-linecap="round" stroke-linejoin="round"/>
<path d="M45.3334 26.6668V40.0002C45.3334 42.9458 42.9457 45.3335 40.0001 45.3335H24.0001C21.0546 45.3335 18.6667 42.9458 18.6667 40.0002V26.6668C18.6667 23.7213 21.0546 21.3335 24.0001 21.3335H40.0001C42.9454 21.3335 45.3334 23.7213 45.3334 26.6668Z" stroke="#2E2E2E" stroke-width="4" stroke-linecap="round" stroke-linejoin="round"/>
<path d="M32 29.3335V21.3335" stroke="#2E2E2E" stroke-width="4" stroke-linecap="round" stroke-linejoin="round"/>
<path d="M5.46899 55.9998V44.0078C5.46899 43.267 6.0695 42.6665 6.81022 42.6665C7.34334 42.6665 7.8231 42.9838 8.05259 43.4649C12.3399 52.4545 21.5123 58.6665 32.1356 58.6665C45.9633 58.6665 57.3326 48.142 58.6707 34.6665" stroke="#2E2E2E" stroke-width="4" stroke-linecap="round" stroke-linejoin="round"/>
</svg>
